<svg id="Capa_1" data-name="Capa 1" xmlns="http://www.w3.org/2000/svg" viewBox="0 0 426.97 72.22"><defs><style>.cls-1{fill:#3d3935;}.cls-2{fill:#fbba00;}</style></defs><path class="cls-1" d="M217.45,86a.36.36,0,0,1-.36-.35V17.8a.36.36,0,0,1,.72,0V85.6A.36.36,0,0,1,217.45,86Z" transform="translate(-7.45 -13.73)"/><path class="cls-2" d="M337.72,44.76c-.81-12.12-9.13-20.51-21.2-20.51s-20.34,8.23-21.18,20.51a115.5,115.5,0,0,0-.09,13.46c-.47,0-1,0-1.65,0h-4.73V30.31c0-3,.09-3.48-3.79-4.63a19.34,19.34,0,0,0-4.53-1.09c-1.4,0-2.1.86-3.18,2.33L255.46,56.1c-1,1.45-1.85,2.64-1.85,3.73s.42,1.77,1.65,4C257,67,257.2,67,260.1,67H280v7.85c0,4.5,0,4.61,4.41,4.61s4.45-.11,4.45-4.61V67h4.73a12.88,12.88,0,0,0,3.21-.2c3,8.21,10.12,13.41,19.71,13.41,12.07,0,20.39-8.37,21.2-20.61A131,131,0,0,0,337.72,44.76ZM280,58.43H263.48L280,36.12Zm48.74.07c-.5,8.22-5.11,13-12.23,13s-11.73-4.8-12.21-13a120.88,120.88,0,0,1,0-12.77c.48-8.14,5.08-12.93,12.21-12.93s11.73,4.79,12.23,12.93A126.49,126.49,0,0,1,328.75,58.5Z" transform="translate(-7.45 -13.73)"/><path class="cls-1" d="M351.82,42.51a2.41,2.41,0,0,1-1.42.43,2.57,2.57,0,0,1-.9-.15,2.83,2.83,0,0,1-.81-.47l.72-1.27a2.2,2.2,0,0,0,.45.26,1.12,1.12,0,0,0,.44.09,1,1,0,0,0,1-.7l.21-.45-2.84-6.75h1.73l2,5,1.79-5h1.68l-3.08,7.73A2.66,2.66,0,0,1,351.82,42.51Z" transform="translate(-7.45 -13.73)"/><path class="cls-1" d="M361.88,34.38a3.89,3.89,0,0,1,.83,2.64c0,.22,0,.39,0,.5h-5.07a1.92,1.92,0,0,0,2,1.57,2.62,2.62,0,0,0,1-.2,2.52,2.52,0,0,0,.85-.58l.89.94a3.41,3.41,0,0,1-1.25.88,4.32,4.32,0,0,1-1.64.3,3.8,3.8,0,0,1-1.85-.43,3,3,0,0,1-1.24-1.23,3.71,3.71,0,0,1-.44-1.82,3.64,3.64,0,0,1,.45-1.82,3.06,3.06,0,0,1,1.23-1.24,3.66,3.66,0,0,1,1.82-.44A3.14,3.14,0,0,1,361.88,34.38Zm-.7,2a1.72,1.72,0,0,0-.5-1.21,1.95,1.95,0,0,0-2.49,0,2,2,0,0,0-.61,1.21Z" transform="translate(-7.45 -13.73)"/><path class="cls-1" d="M368.21,40.37v-.84a2.32,2.32,0,0,1-.93.69,3.51,3.51,0,0,1-1.3.23,2.78,2.78,0,0,1-1.26-.28,2,2,0,0,1-.84-.76,2.06,2.06,0,0,1-.3-1.1,1.82,1.82,0,0,1,.68-1.5,3.06,3.06,0,0,1,1.93-.56h2v-.18a1.14,1.14,0,0,0-.4-.94,1.75,1.75,0,0,0-1.15-.33,3.94,3.94,0,0,0-2,.64L364,34.28a8.11,8.11,0,0,1,1.47-.65,5.5,5.5,0,0,1,1.55-.2,3,3,0,0,1,2.07.65,2.25,2.25,0,0,1,.76,1.79v4.5Zm-.6-1.55a1.15,1.15,0,0,0,.58-.84v-.62h-1.73a2,2,0,0,0-1,.2.74.74,0,0,0-.31.65.86.86,0,0,0,.33.7,1.41,1.41,0,0,0,.89.25A2.14,2.14,0,0,0,367.61,38.82Z" transform="translate(-7.45 -13.73)"/><path class="cls-1" d="M374.34,33.8a2.74,2.74,0,0,1,1.39-.37v1.62a2.24,2.24,0,0,0-1.7.5,1.9,1.9,0,0,0-.63,1.51v3.31h-1.68V33.5h1.68v1.32A2.45,2.45,0,0,1,374.34,33.8Z" transform="translate(-7.45 -13.73)"/><path class="cls-1" d="M379.94,34.9a3.37,3.37,0,0,0-1-.17,1.32,1.32,0,0,0-.68.15.48.48,0,0,0-.25.45.55.55,0,0,0,.32.5,5.56,5.56,0,0,0,1,.37,7.34,7.34,0,0,1,1.18.43,2.31,2.31,0,0,1,.81.62,1.74,1.74,0,0,1,.34,1.1,1.77,1.77,0,0,1-.77,1.54,3.31,3.31,0,0,1-1.94.54,4.9,4.9,0,0,1-1.56-.25,3.54,3.54,0,0,1-1.28-.71l.58-1.17a3,3,0,0,0,1.1.62,3.74,3.74,0,0,0,1.22.23,1.43,1.43,0,0,0,.74-.16.54.54,0,0,0,.28-.48.58.58,0,0,0-.33-.54,5.83,5.83,0,0,0-1-.4,8.24,8.24,0,0,1-1.13-.41,2,2,0,0,1-.75-.6,1.62,1.62,0,0,1-.33-1.06A1.81,1.81,0,0,1,377.2,34a3.14,3.14,0,0,1,1.86-.53,4.72,4.72,0,0,1,1.34.19,4.39,4.39,0,0,1,1.18.54L381,35.36A4.71,4.71,0,0,0,379.94,34.9Z" transform="translate(-7.45 -13.73)"/><path class="cls-1" d="M351.05,45.35a.84.84,0,0,1,0,1.11.69.69,0,0,1-.53.22.72.72,0,0,1-.54-.22.84.84,0,0,1,0-1.11.75.75,0,0,1,.54-.21A.72.72,0,0,1,351.05,45.35Zm-1.12,2.5h1.19v6.79h-1.19Z" transform="translate(-7.45 -13.73)"/><path class="cls-1" d="M359.1,48.51a2.67,2.67,0,0,1,.68,1.93v4.2h-1.2V50.76a1.82,1.82,0,0,0-.48-1.34,1.79,1.79,0,0,0-1.33-.48,2,2,0,0,0-1.48.58,2.3,2.3,0,0,0-.65,1.49v3.63h-1.19V47.85h1.19v1.44a2.63,2.63,0,0,1,2.58-1.48A2.5,2.5,0,0,1,359.1,48.51Z" transform="translate(-7.45 -13.73)"/><path class="cls-1" d="M364.69,48.94a3.45,3.45,0,0,0-1-.16,1.7,1.7,0,0,0-.87.2.74.74,0,0,0,0,1.24,6,6,0,0,0,1.11.43,7.21,7.21,0,0,1,1.16.41,2.12,2.12,0,0,1,.77.6,1.72,1.72,0,0,1,.31,1.05,1.65,1.65,0,0,1-.73,1.47,3.11,3.11,0,0,1-1.8.5,4.53,4.53,0,0,1-1.47-.24,3.37,3.37,0,0,1-1.2-.7l.45-.87a3.23,3.23,0,0,0,1,.62,3.6,3.6,0,0,0,1.22.23,1.88,1.88,0,0,0,.95-.22.74.74,0,0,0,.36-.67.75.75,0,0,0-.38-.69,5.14,5.14,0,0,0-1.15-.47,5.83,5.83,0,0,1-1.11-.39,1.87,1.87,0,0,1-.73-.58,1.53,1.53,0,0,1-.31-1,1.63,1.63,0,0,1,.7-1.43,3,3,0,0,1,1.73-.47A4.23,4.23,0,0,1,365,48a3.48,3.48,0,0,1,1,.47l-.44.91A3.92,3.92,0,0,0,364.69,48.94Z" transform="translate(-7.45 -13.73)"/><path class="cls-1" d="M373.29,48.24a3.06,3.06,0,0,1,1.16,1.23,3.84,3.84,0,0,1,.41,1.79,3.8,3.8,0,0,1-.41,1.78,3,3,0,0,1-1.14,1.21,3.24,3.24,0,0,1-1.69.43,3.07,3.07,0,0,1-1.51-.36,2.55,2.55,0,0,1-1-1v3.84h-1.2V47.85h1.2V49.2a2.59,2.59,0,0,1,1-1,3,3,0,0,1,1.5-.36A3.29,3.29,0,0,1,373.29,48.24Zm-.75,5.09a2,2,0,0,0,.81-.86,2.68,2.68,0,0,0,.29-1.25,2.54,2.54,0,0,0-.3-1.23,2.1,2.1,0,0,0-.81-.86,2.27,2.27,0,0,0-1.17-.31,2.32,2.32,0,0,0-1.17.31,2.19,2.19,0,0,0-.82.86,2.66,2.66,0,0,0-.29,1.23,2.69,2.69,0,0,0,.29,1.26,2.16,2.16,0,0,0,.82.85,2.38,2.38,0,0,0,2.35,0Z" transform="translate(-7.45 -13.73)"/><path class="cls-1" d="M377.65,45.35a.84.84,0,0,1,0,1.11.69.69,0,0,1-.53.22.68.68,0,0,1-.53-.22.81.81,0,0,1,0-1.11.71.71,0,0,1,.53-.21A.72.72,0,0,1,377.65,45.35Zm-1.12,2.5h1.19v6.79h-1.19Z" transform="translate(-7.45 -13.73)"/><path class="cls-1" d="M382.19,48.2a2.87,2.87,0,0,1,1.47-.39V49a2.18,2.18,0,0,0-2.42,2.1v3.58h-1.19V47.85h1.19v1.46A2.42,2.42,0,0,1,382.19,48.2Z" transform="translate(-7.45 -13.73)"/><path class="cls-1" d="M386.08,45.35a.84.84,0,0,1,0,1.11.76.76,0,0,1-1.07,0,.84.84,0,0,1,0-1.11.79.79,0,0,1,1.07,0ZM385,47.85h1.19v6.79H385Z" transform="translate(-7.45 -13.73)"/><path class="cls-1" d="M394.13,48.51a2.67,2.67,0,0,1,.68,1.93v4.2h-1.2V50.76a1.82,1.82,0,0,0-.48-1.34,1.79,1.79,0,0,0-1.33-.48,2,2,0,0,0-1.48.58,2.3,2.3,0,0,0-.65,1.49v3.63h-1.2V47.85h1.2v1.44a2.62,2.62,0,0,1,2.58-1.48A2.5,2.5,0,0,1,394.13,48.51Z" transform="translate(-7.45 -13.73)"/><path class="cls-1" d="M403,47.85V54a3.29,3.29,0,0,1-.43,1.71,2.91,2.91,0,0,1-1.21,1.12,4.1,4.1,0,0,1-1.83.39,4.68,4.68,0,0,1-2.8-1l.53-.87a3.59,3.59,0,0,0,1,.61,3.44,3.44,0,0,0,1.18.2,2.37,2.37,0,0,0,1.68-.59,2.07,2.07,0,0,0,.63-1.58V53a2.46,2.46,0,0,1-1,1,2.9,2.9,0,0,1-1.42.34,3.16,3.16,0,0,1-1.61-.41,2.78,2.78,0,0,1-1.08-1.17,3.6,3.6,0,0,1-.39-1.71,3.53,3.53,0,0,1,.39-1.68,2.7,2.7,0,0,1,1.08-1.14,3.16,3.16,0,0,1,1.61-.41,2.92,2.92,0,0,1,1.42.33,2.46,2.46,0,0,1,1,1V47.85Zm-2.25,5.22a2,2,0,0,0,.77-.81,2.53,2.53,0,0,0,.27-1.18,2.5,2.5,0,0,0-.27-1.18,2.18,2.18,0,0,0-3-.82,2.12,2.12,0,0,0-.78.82,2.39,2.39,0,0,0-.28,1.18,2.34,2.34,0,0,0,.62,1.65,2,2,0,0,0,1.56.64A2.09,2.09,0,0,0,400.7,53.07Z" transform="translate(-7.45 -13.73)"/><path class="cls-1" d="M414.15,48.51a2.67,2.67,0,0,1,.68,1.93v4.2h-1.19V50.76a1.68,1.68,0,0,0-1.81-1.82,2.07,2.07,0,0,0-1.49.58,2.3,2.3,0,0,0-.65,1.49v3.63H408.5V47.85h1.19v1.44a2.64,2.64,0,0,1,2.58-1.48A2.48,2.48,0,0,1,414.15,48.51Z" transform="translate(-7.45 -13.73)"/><path class="cls-1" d="M422.07,48.74a4.75,4.75,0,0,1,.8,3H417.5a2.32,2.32,0,0,0,.77,1.45,2.24,2.24,0,0,0,1.53.54,3,3,0,0,0,1.13-.21,3,3,0,0,0,.9-.62l.66.68a3.4,3.4,0,0,1-1.21.83,4,4,0,0,1-1.57.3,3.58,3.58,0,0,1-1.78-.43A3.06,3.06,0,0,1,416.72,53a3.76,3.76,0,0,1-.43-1.79,3.69,3.69,0,0,1,.43-1.78,3.15,3.15,0,0,1,1.21-1.22,3.5,3.5,0,0,1,1.75-.44A3,3,0,0,1,422.07,48.74Zm-.27,2a2.09,2.09,0,0,0-.61-1.46,2.12,2.12,0,0,0-1.49-.53,2.16,2.16,0,0,0-1.5.54,2.26,2.26,0,0,0-.71,1.45Z" transform="translate(-7.45 -13.73)"/><path class="cls-1" d="M423.16,47.85h1.24l1.9,5.61,1.88-5.61h1.24l1.89,5.61,1.88-5.61h1.23l-2.51,6.79h-1.24l-1.88-5.34-1.87,5.34h-1.25Z" transform="translate(-7.45 -13.73)"/><path class="cls-1" d="M355.4,62.52a2.94,2.94,0,0,1,1.15,1.22,4,4,0,0,1,0,3.57,3,3,0,0,1-1.14,1.21,3.27,3.27,0,0,1-1.69.43,3.13,3.13,0,0,1-1.52-.36,2.57,2.57,0,0,1-1-1v1.34H350V59.38h1.2v4.09a2.47,2.47,0,0,1,1-1,3,3,0,0,1,1.49-.36A3.31,3.31,0,0,1,355.4,62.52Zm-.75,5.08a2.17,2.17,0,0,0,.81-.86,2.67,2.67,0,0,0,.29-1.24,2.56,2.56,0,0,0-.3-1.24,2.31,2.31,0,0,0-.81-.86,2.27,2.27,0,0,0-1.17-.31,2.3,2.3,0,0,0-1.17.31,2.26,2.26,0,0,0-.82.86,2.82,2.82,0,0,0,0,2.49,2.16,2.16,0,0,0,.82.85,2.2,2.2,0,0,0,1.17.31A2.24,2.24,0,0,0,354.65,67.6Z" transform="translate(-7.45 -13.73)"/><path class="cls-1" d="M363.75,63a3.81,3.81,0,0,1,.81,2.59,3.53,3.53,0,0,1,0,.39h-5.36a2.29,2.29,0,0,0,.76,1.45,2.25,2.25,0,0,0,1.53.54,3,3,0,0,0,1.13-.22,2.59,2.59,0,0,0,.9-.62l.66.68a3.56,3.56,0,0,1-1.21.84,4.14,4.14,0,0,1-1.57.29,3.61,3.61,0,0,1-1.78-.43,3,3,0,0,1-1.2-1.21,3.62,3.62,0,0,1-.43-1.79,3.58,3.58,0,0,1,.43-1.78,3.13,3.13,0,0,1,1.2-1.22,3.51,3.51,0,0,1,1.76-.44A3,3,0,0,1,363.75,63Zm-.27,2.05a2,2,0,0,0-2.11-2,2.16,2.16,0,0,0-1.5.54,2.31,2.31,0,0,0-.71,1.45Z" transform="translate(-7.45 -13.73)"/><path class="cls-1" d="M372.2,62.12v6.1a3.29,3.29,0,0,1-.43,1.71,2.85,2.85,0,0,1-1.21,1.12,4.1,4.1,0,0,1-1.83.39,4.62,4.62,0,0,1-2.8-1l.53-.87a3.59,3.59,0,0,0,1,.61,3.44,3.44,0,0,0,1.18.2,2.37,2.37,0,0,0,1.68-.59,2.07,2.07,0,0,0,.63-1.58v-1a2.46,2.46,0,0,1-1,1,2.9,2.9,0,0,1-1.42.35,3.07,3.07,0,0,1-1.61-.42A2.78,2.78,0,0,1,365.91,67a3.58,3.58,0,0,1-.39-1.7,3.54,3.54,0,0,1,.39-1.69A2.76,2.76,0,0,1,367,62.49a3.16,3.16,0,0,1,1.61-.41,2.92,2.92,0,0,1,1.42.33,2.53,2.53,0,0,1,1,1V62.12ZM370,67.35a2.1,2.1,0,0,0,.77-.82,2.71,2.71,0,0,0,0-2.36,2.21,2.21,0,0,0-3-.82,2.12,2.12,0,0,0-.78.82,2.41,2.41,0,0,0-.28,1.19,2.33,2.33,0,0,0,.62,1.64,2,2,0,0,0,1.56.64A2.17,2.17,0,0,0,370,67.35Z" transform="translate(-7.45 -13.73)"/><path class="cls-1" d="M375.51,59.63a.83.83,0,0,1,0,1.1.76.76,0,0,1-1.07,0,.83.83,0,0,1,0-1.1.76.76,0,0,1,1.07,0Zm-1.13,2.49h1.2v6.79h-1.2Z" transform="translate(-7.45 -13.73)"/><path class="cls-1" d="M383.55,62.78a2.63,2.63,0,0,1,.68,1.93v4.2H383V65a1.66,1.66,0,0,0-1.81-1.82,2,2,0,0,0-1.48.58,2.28,2.28,0,0,0-.65,1.49v3.63h-1.2V62.12h1.2v1.44a2.62,2.62,0,0,1,2.58-1.48A2.46,2.46,0,0,1,383.55,62.78Z" transform="translate(-7.45 -13.73)"/><path class="cls-1" d="M392,62.78a2.67,2.67,0,0,1,.68,1.93v4.2h-1.2V65a1.82,1.82,0,0,0-.48-1.34,1.79,1.79,0,0,0-1.33-.48,2,2,0,0,0-1.48.58,2.33,2.33,0,0,0-.65,1.49v3.63h-1.19V62.12h1.19v1.44a2.63,2.63,0,0,1,2.58-1.48A2.5,2.5,0,0,1,392,62.78Z" transform="translate(-7.45 -13.73)"/><path class="cls-1" d="M396,59.63a.83.83,0,0,1,0,1.1.76.76,0,0,1-1.07,0,.83.83,0,0,1,0-1.1.76.76,0,0,1,1.07,0Zm-1.13,2.49H396v6.79h-1.2Z" transform="translate(-7.45 -13.73)"/><path class="cls-1" d="M404,62.78a2.63,2.63,0,0,1,.68,1.93v4.2h-1.19V65a1.66,1.66,0,0,0-1.81-1.82,2.07,2.07,0,0,0-1.49.58,2.32,2.32,0,0,0-.64,1.49v3.63h-1.2V62.12h1.2v1.44a2.62,2.62,0,0,1,2.58-1.48A2.47,2.47,0,0,1,404,62.78Z" transform="translate(-7.45 -13.73)"/><path class="cls-1" d="M412.83,62.12v6.1a3.39,3.39,0,0,1-.43,1.71,2.82,2.82,0,0,1-1.22,1.12,4,4,0,0,1-1.82.39,4.6,4.6,0,0,1-2.8-1l.53-.87a3.59,3.59,0,0,0,1,.61,3.44,3.44,0,0,0,1.18.2,2.37,2.37,0,0,0,1.68-.59,2.07,2.07,0,0,0,.63-1.58v-1a2.49,2.49,0,0,1-1,1,2.83,2.83,0,0,1-1.41.35,3,3,0,0,1-1.61-.42A2.86,2.86,0,0,1,406.53,67a3.7,3.7,0,0,1-.38-1.7,3.66,3.66,0,0,1,.38-1.69,2.85,2.85,0,0,1,1.09-1.14,3.13,3.13,0,0,1,1.61-.41,3,3,0,0,1,1.42.33,2.53,2.53,0,0,1,1,1V62.12Zm-2.25,5.23a2.07,2.07,0,0,0,.76-.82,2.63,2.63,0,0,0,0-2.36,2.07,2.07,0,0,0-.76-.82,2.16,2.16,0,0,0-3,.82,2.41,2.41,0,0,0-.28,1.19,2.37,2.37,0,0,0,.61,1.64,2.07,2.07,0,0,0,1.57.64A2.2,2.2,0,0,0,410.58,67.35Z" transform="translate(-7.45 -13.73)"/><path class="cls-1" d="M417.79,63.21a3.42,3.42,0,0,0-1-.15,1.6,1.6,0,0,0-.87.2.67.67,0,0,0-.32.61.68.68,0,0,0,.36.62,6,6,0,0,0,1.11.43,8.33,8.33,0,0,1,1.16.41,2.24,2.24,0,0,1,.77.6,1.73,1.73,0,0,1,.31,1.06,1.65,1.65,0,0,1-.73,1.46,3,3,0,0,1-1.8.5,4.53,4.53,0,0,1-1.47-.24,3.23,3.23,0,0,1-1.2-.7l.45-.87a3.23,3.23,0,0,0,1,.62,3.6,3.6,0,0,0,1.22.23,1.78,1.78,0,0,0,.95-.22.74.74,0,0,0,.36-.67.75.75,0,0,0-.38-.69,4.75,4.75,0,0,0-1.15-.46,6.87,6.87,0,0,1-1.11-.4,1.87,1.87,0,0,1-.73-.58,1.53,1.53,0,0,1-.31-1,1.63,1.63,0,0,1,.7-1.43,3,3,0,0,1,1.73-.47,4.6,4.6,0,0,1,1.22.17,3.75,3.75,0,0,1,1,.47l-.44.91A3.92,3.92,0,0,0,417.79,63.21Z" transform="translate(-7.45 -13.73)"/><path class="cls-2" d="M159.74,25.39c3.72,10.2,16.9,11,18.56,10.38,1.12-.41,1.6-1.85.34-3.1-1.48-1.49-7.67-1.62-8.4-5.27-.68-3.5,3.06-5.35,1.49-10a5.91,5.91,0,0,0-7.65-3.31c-3.61,1.32-6.3,5.91-4.34,11.28m4.27-6a2,2,0,1,1,1.62,2.3,2,2,0,0,1-1.62-2.3" transform="translate(-7.45 -13.73)"/><path class="cls-2" d="M159.17,46.71a5.91,5.91,0,0,1-7.67-3.31c-1.57-4.64,2.17-6.49,1.48-10-.7-3.65-6.91-3.81-8.4-5.27-1.25-1.26-.77-2.7.35-3.11,1.66-.61,14.84.19,18.56,10.39,2,5.39-.69,10-4.32,11.28" transform="translate(-7.45 -13.73)"/><path class="cls-1" d="M95.66,52a13.36,13.36,0,0,1-1,5.23,9.39,9.39,0,0,1-5.95,5.32,13.24,13.24,0,0,1-9.55-.21A9.64,9.64,0,0,1,73,53.85c-.09-.91-.16-1.82-.16-2.76V36.19a1.69,1.69,0,0,1,3.38,0c0,.31,0,10.06,0,15.72a13.41,13.41,0,0,0,.68,3.77,6.24,6.24,0,0,0,4.57,3.86,10.36,10.36,0,0,0,5.71-.07,6.69,6.69,0,0,0,4.77-4.89,14.74,14.74,0,0,0,.32-2.8c0-5.62,0-15.25,0-15.59A1.72,1.72,0,0,1,94,34.5a1.68,1.68,0,0,1,1.69,1.69c0,.31,0,10.08,0,15.79" transform="translate(-7.45 -13.73)"/><path class="cls-1" d="M67.7,62.87A1.73,1.73,0,0,1,66,61.16c0-.28,0-10.37,0-16.19a7.59,7.59,0,0,0-1.85-5.22,6.51,6.51,0,0,0-6.83-2,6.36,6.36,0,0,0-4.88,5.16,12.41,12.41,0,0,0-.3,2.67c0,5.61,0,15.47,0,15.47a1.79,1.79,0,0,1-3.58,0c0-.38,0-10.63-.07-16.61a6.94,6.94,0,0,0-3.86-6.28,6.82,6.82,0,0,0-9.29,3.65,11.37,11.37,0,0,0-.59,3.38c-.07,5.75,0,15.59,0,16a1.72,1.72,0,0,1-1.67,1.76,1.7,1.7,0,0,1-1.74-1.67V44.81a12.57,12.57,0,0,1,1.26-5.75c1.6-3.17,4.31-4.61,7.72-4.93a11.76,11.76,0,0,1,6.5,1.14,8.5,8.5,0,0,1,3.56,3.45c0-.09.25-.44.28-.53,1.6-2.37,3.38-3.33,6.34-3.95a11.09,11.09,0,0,1,7.65,1.1c2.9,1.58,4.16,4.25,4.61,7.4a18.19,18.19,0,0,1,.16,2.55c0,5.69,0,15.48,0,15.85a1.68,1.68,0,0,1-1.71,1.73" transform="translate(-7.45 -13.73)"/><path class="cls-1" d="M10.79,48a5,5,0,0,1,1.55-.69,5,5,0,0,1,1.89-.25c2,0,3.93,0,5.89,0,2.86-.05,4.29-1.69,4.57-4.34.16-2.21-.8-4.88-4-5.14a16.17,16.17,0,0,0-3.61.12,6.45,6.45,0,0,0-5.93,5.57A33.63,33.63,0,0,0,10.79,48m14.1,14a13.17,13.17,0,0,1-12,0A9.62,9.62,0,0,1,7.7,54a56.58,56.58,0,0,1,0-11.12c.57-4.89,4.06-7.9,9-8.61a13.09,13.09,0,0,1,5.87.23,7.72,7.72,0,0,1,5.52,8.26c-.32,3.84-3,7.1-6.73,7.52-2.22.22-4.54.09-6.78.16a10,10,0,0,0-2.33.31c-1.23.37-1.55.76-1.37,2.58a7.35,7.35,0,0,0,2.24,4.78,7.68,7.68,0,0,0,4.29,1.75c2.37.21,4.09.23,6.25-1.16A17.93,17.93,0,0,0,25.76,57a1.65,1.65,0,0,1,2.12.12A1.77,1.77,0,0,1,28,59.38,9,9,0,0,1,24.89,62" transform="translate(-7.45 -13.73)"/><path class="cls-1" d="M116.5,61.8a13.15,13.15,0,0,1-12.23.16,8.9,8.9,0,0,1-5.21-7.7,68.22,68.22,0,0,1,0-11c.44-5,4-8.26,9-9A12.37,12.37,0,0,1,118,36.71c.27.23.54.48.79.73s.39.43.62.71a1.58,1.58,0,0,1-.18,2.35,1.64,1.64,0,0,1-2.47-.3c-.09-.13-.23-.23-.32-.34a9,9,0,0,0-12.16-.11,7.24,7.24,0,0,0-2,5.15c0,2.77-.09,5.51.07,8.25.5,4.11,2.83,6.41,6.87,6.78a9,9,0,0,0,5.55-1A22.37,22.37,0,0,0,117,57.23a1.61,1.61,0,0,1,2.28-.18,1.57,1.57,0,0,1,.2,2.19,9.74,9.74,0,0,1-3,2.56" transform="translate(-7.45 -13.73)"/><path class="cls-1" d="M140.61,49.52a5.28,5.28,0,0,1-1.55.68,4.64,4.64,0,0,1-1.9.25c-2,0-3.92,0-5.89,0-2.85,0-4.29,1.69-4.56,4.34-.16,2.21.8,4.88,4,5.13a16.16,16.16,0,0,0,3.61-.11,6.46,6.46,0,0,0,5.93-5.57,40.65,40.65,0,0,0,.32-4.77m-14.13-14a13.17,13.17,0,0,1,12,0,9.62,9.62,0,0,1,5.23,8,56.59,56.59,0,0,1,0,11.12c-.58,4.89-4.07,7.9-9,8.61a13.19,13.19,0,0,1-5.86-.23,7.73,7.73,0,0,1-5.53-8.27c.32-3.83,3-7.1,6.74-7.51,2.21-.22,4.54-.09,6.78-.16a9.56,9.56,0,0,0,2.33-.32c1.23-.36,1.55-.75,1.37-2.58a7.4,7.4,0,0,0-2.24-4.77A7.54,7.54,0,0,0,134,37.65c-2.38-.21-4.09-.23-6.26,1.16a19.78,19.78,0,0,0-2.08,1.74,1.65,1.65,0,0,1-2.12-.12,1.79,1.79,0,0,1-.16-2.26,8.93,8.93,0,0,1,3.15-2.65" transform="translate(-7.45 -13.73)"/><path class="cls-2" d="M7.66,73H8.87l1.84,5.43L12.52,73h1.2l1.83,5.43L17.36,73h1.19L16.13,79.6h-1.2l-1.82-5.16L11.3,79.6H10.1Z" transform="translate(-7.45 -13.73)"/><path class="cls-2" d="M25.17,73.67a2.57,2.57,0,0,1,.66,1.87V79.6H24.67V75.85a1.77,1.77,0,0,0-.46-1.3,1.74,1.74,0,0,0-1.29-.46,2,2,0,0,0-1.51.64,2.42,2.42,0,0,0-.56,1.64V79.6H19.69V70.39h1.16v4.06A2.53,2.53,0,0,1,23.36,73,2.41,2.41,0,0,1,25.17,73.67Z" transform="translate(-7.45 -13.73)"/><path class="cls-2" d="M32.83,73.9a4.59,4.59,0,0,1,.77,2.87H28.41a2.23,2.23,0,0,0,.74,1.4,2.16,2.16,0,0,0,1.48.52,2.82,2.82,0,0,0,1.09-.21,2.73,2.73,0,0,0,.87-.59l.64.65a3.41,3.41,0,0,1-1.17.81,3.92,3.92,0,0,1-1.52.29,3.44,3.44,0,0,1-1.71-.42,2.93,2.93,0,0,1-1.17-1.17,3.52,3.52,0,0,1-.42-1.73,3.48,3.48,0,0,1,.42-1.72,3.06,3.06,0,0,1,1.16-1.18,3.4,3.4,0,0,1,1.7-.42A2.89,2.89,0,0,1,32.83,73.9Zm-.26,2a1.92,1.92,0,0,0-2-1.93,2.09,2.09,0,0,0-1.44.52,2.16,2.16,0,0,0-.69,1.41Z" transform="translate(-7.45 -13.73)"/><path class="cls-2" d="M37.26,73.37A2.7,2.7,0,0,1,38.68,73v1.11a2.24,2.24,0,0,0-1.63.52,2.27,2.27,0,0,0-.71,1.51V79.6H35.19V73h1.15v1.42A2.45,2.45,0,0,1,37.26,73.37Z" transform="translate(-7.45 -13.73)"/><path class="cls-2" d="M44.87,73.9a4.59,4.59,0,0,1,.77,2.87H40.45a2.23,2.23,0,0,0,.74,1.4,2.18,2.18,0,0,0,1.48.52,2.82,2.82,0,0,0,1.09-.21,2.67,2.67,0,0,0,.88-.59l.63.65a3.23,3.23,0,0,1-1.17.81,3.87,3.87,0,0,1-1.51.29,3.45,3.45,0,0,1-1.72-.42,3,3,0,0,1-1.17-1.17,3.52,3.52,0,0,1-.42-1.73,3.48,3.48,0,0,1,.42-1.72,3.06,3.06,0,0,1,1.16-1.18,3.4,3.4,0,0,1,1.7-.42A2.89,2.89,0,0,1,44.87,73.9Zm-.26,2a1.92,1.92,0,0,0-2-1.93,2.1,2.1,0,0,0-1.44.52,2.16,2.16,0,0,0-.69,1.41Z" transform="translate(-7.45 -13.73)"/><path class="cls-2" d="M53.21,74a2.24,2.24,0,0,0-1.14.28,2,2,0,0,0-.79.81,2.69,2.69,0,0,0,0,2.41,2.07,2.07,0,0,0,.77.81,2.2,2.2,0,0,0,1.12.29,3,3,0,0,0,1.15-.21,2.08,2.08,0,0,0,.84-.61l.66.67a2.88,2.88,0,0,1-1.14.86,3.88,3.88,0,0,1-1.56.3,3.43,3.43,0,0,1-1.7-.42A3.13,3.13,0,0,1,50.25,78a3.81,3.81,0,0,1,0-3.44,3,3,0,0,1,1.16-1.18,3.43,3.43,0,0,1,1.7-.42,4.14,4.14,0,0,1,1.5.25,3,3,0,0,1,1.11.74l-.63.79A2.62,2.62,0,0,0,53.21,74Z" transform="translate(-7.45 -13.73)"/><path class="cls-2" d="M59.53,73.37A2.7,2.7,0,0,1,61,73v1.11a2.11,2.11,0,0,0-2.34,2V79.6H57.46V73h1.15v1.42A2.51,2.51,0,0,1,59.53,73.37Z" transform="translate(-7.45 -13.73)"/><path class="cls-2" d="M67.14,73.9a3.69,3.69,0,0,1,.79,2.5,3.12,3.12,0,0,1,0,.37H62.72a2.23,2.23,0,0,0,.74,1.4,2.18,2.18,0,0,0,1.49.52A2.77,2.77,0,0,0,66,78.48a2.67,2.67,0,0,0,.88-.59l.63.65a3.23,3.23,0,0,1-1.17.81,3.87,3.87,0,0,1-1.51.29,3.45,3.45,0,0,1-1.72-.42A3,3,0,0,1,62,78.05a3.51,3.51,0,0,1-.41-1.73A3.47,3.47,0,0,1,62,74.6a3.13,3.13,0,0,1,1.16-1.18,3.43,3.43,0,0,1,1.7-.42A2.89,2.89,0,0,1,67.14,73.9Zm-.26,2a1.9,1.9,0,0,0-2-1.93,2.13,2.13,0,0,0-1.45.52,2.26,2.26,0,0,0-.69,1.41Z" transform="translate(-7.45 -13.73)"/><path class="cls-2" d="M73.51,79.6v-.92a2.68,2.68,0,0,1-2.3,1A2.64,2.64,0,0,1,70,79.39a1.87,1.87,0,0,1-.8-.72,2,2,0,0,1-.28-1,1.71,1.71,0,0,1,.65-1.4,3,3,0,0,1,1.82-.53H73.5V75.4a1.34,1.34,0,0,0-.43-1.07A1.83,1.83,0,0,0,71.82,74a3.59,3.59,0,0,0-2,.71l-.48-.8a6.37,6.37,0,0,1,1.3-.66,4.43,4.43,0,0,1,1.44-.2,2.76,2.76,0,0,1,1.9.6,2.17,2.17,0,0,1,.68,1.68V79.6Zm-.69-1.3a1.51,1.51,0,0,0,.68-1v-.66H71.58a2.37,2.37,0,0,0-1.17.23.82.82,0,0,0-.37.75,1,1,0,0,0,.38.81,1.7,1.7,0,0,0,1,.29A2.33,2.33,0,0,0,72.82,78.3Z" transform="translate(-7.45 -13.73)"/><path class="cls-2" d="M80.24,79.17a2.84,2.84,0,0,1-1.54.48,1.78,1.78,0,0,1-1.27-.47,1.87,1.87,0,0,1-.48-1.4V74.14H76v-.88H77V71.49h1.17v1.77h2v.88h-2v3.42a1.19,1.19,0,0,0,.2.79.75.75,0,0,0,.59.23,2,2,0,0,0,1-.31Z" transform="translate(-7.45 -13.73)"/><path class="cls-2" d="M82.73,70.62a.74.74,0,0,1,.2.54.72.72,0,0,1-.2.53.74.74,0,0,1-1,0,.72.72,0,0,1-.21-.53.75.75,0,0,1,.21-.54.74.74,0,0,1,1,0ZM81.64,73H82.8V79.6H81.64Z" transform="translate(-7.45 -13.73)"/><path class="cls-2" d="M89.52,73.42a3,3,0,0,1,1.19,1.17,3.35,3.35,0,0,1,.43,1.72A3.42,3.42,0,0,1,90.71,78a3.07,3.07,0,0,1-1.19,1.18,3.86,3.86,0,0,1-3.5,0A3.07,3.07,0,0,1,84.83,78a3.39,3.39,0,0,1-.43-1.73,3.35,3.35,0,0,1,.43-1.72A3,3,0,0,1,86,73.42a3.86,3.86,0,0,1,3.5,0Zm-2.89.88a2,2,0,0,0-.78.82,2.75,2.75,0,0,0,0,2.42,2,2,0,0,0,.78.83,2.28,2.28,0,0,0,1.15.29,2.24,2.24,0,0,0,1.13-.29,2,2,0,0,0,.78-.83,2.75,2.75,0,0,0,0-2.42,2,2,0,0,0-.78-.82,2.15,2.15,0,0,0-1.13-.3A2.19,2.19,0,0,0,86.63,74.3Z" transform="translate(-7.45 -13.73)"/><path class="cls-2" d="M98.22,73.67a2.57,2.57,0,0,1,.65,1.87V79.6H97.72V75.85a1.77,1.77,0,0,0-.47-1.3A1.72,1.72,0,0,0,96,74.09a2,2,0,0,0-1.43.56,2.23,2.23,0,0,0-.63,1.44V79.6H92.75V73h1.16v1.39A2.53,2.53,0,0,1,96.4,73,2.43,2.43,0,0,1,98.22,73.67Z" transform="translate(-7.45 -13.73)"/><path class="cls-2" d="M109.48,73.42a2.81,2.81,0,0,1,1.11,1.18,3.6,3.6,0,0,1,.4,1.74,3.65,3.65,0,0,1-.39,1.71,2.79,2.79,0,0,1-1.11,1.17,3.12,3.12,0,0,1-1.63.42,3,3,0,0,1-1.46-.35,2.51,2.51,0,0,1-1-1v1.3h-1.15V70.39h1.15v4a2.51,2.51,0,0,1,1-1,3,3,0,0,1,1.45-.34A3.2,3.2,0,0,1,109.48,73.42Zm-.73,4.91a1.9,1.9,0,0,0,.78-.83,2.5,2.5,0,0,0,.28-1.2,2.46,2.46,0,0,0-.28-1.19,2.07,2.07,0,0,0-.79-.84,2.21,2.21,0,0,0-1.13-.29,2.24,2.24,0,0,0-1.13.29,2.07,2.07,0,0,0-.79.84,2.47,2.47,0,0,0-.29,1.19,2.52,2.52,0,0,0,.29,1.21,2,2,0,0,0,.79.82,2.3,2.3,0,0,0,2.27,0Z" transform="translate(-7.45 -13.73)"/><path class="cls-2" d="M117.55,73.9a3.69,3.69,0,0,1,.78,2.5c0,.16,0,.29,0,.37h-5.19a2.19,2.19,0,0,0,.74,1.4,2.16,2.16,0,0,0,1.48.52,2.82,2.82,0,0,0,1.09-.21,2.73,2.73,0,0,0,.87-.59l.63.65a3.28,3.28,0,0,1-1.16.81,3.92,3.92,0,0,1-1.52.29,3.48,3.48,0,0,1-1.72-.42,2.9,2.9,0,0,1-1.16-1.17,3.52,3.52,0,0,1-.42-1.73,3.48,3.48,0,0,1,.42-1.72,3,3,0,0,1,1.16-1.18,3.37,3.37,0,0,1,1.7-.42A2.91,2.91,0,0,1,117.55,73.9Zm-.26,2a2,2,0,0,0-.6-1.41,2,2,0,0,0-1.44-.52,2.13,2.13,0,0,0-1.45.52,2.26,2.26,0,0,0-.69,1.41Z" transform="translate(-7.45 -13.73)"/><path class="cls-2" d="M125.71,73v5.9a3.16,3.16,0,0,1-.41,1.65,2.86,2.86,0,0,1-1.17,1.09,4,4,0,0,1-1.77.38,4.47,4.47,0,0,1-2.7-.92l.51-.85a3.33,3.33,0,0,0,1,.59,3.25,3.25,0,0,0,1.14.2,2.3,2.3,0,0,0,1.63-.58,2,2,0,0,0,.61-1.52v-.92a2.4,2.4,0,0,1-1,.92,2.74,2.74,0,0,1-1.36.33,3,3,0,0,1-1.56-.4,2.77,2.77,0,0,1-1.05-1.12,3.56,3.56,0,0,1-.37-1.66,3.4,3.4,0,0,1,.37-1.62,2.81,2.81,0,0,1,1.05-1.11,3.06,3.06,0,0,1,1.56-.39,2.75,2.75,0,0,1,1.37.32,2.37,2.37,0,0,1,.94.92V73Zm-2.17,5.06a2,2,0,0,0,.74-.79,2.56,2.56,0,0,0,0-2.29,2.08,2.08,0,0,0-.74-.79,2,2,0,0,0-1.08-.28,2,2,0,0,0-1.08.28,2.21,2.21,0,0,0-.76.79,2.41,2.41,0,0,0-.27,1.15,2.27,2.27,0,0,0,.6,1.59,2,2,0,0,0,1.51.62A2,2,0,0,0,123.54,78.09Z" transform="translate(-7.45 -13.73)"/><path class="cls-2" d="M128.91,70.62a.75.75,0,0,1,.21.54.72.72,0,0,1-.21.53.74.74,0,0,1-1,0,.72.72,0,0,1-.2-.53.74.74,0,0,1,.2-.54.74.74,0,0,1,1,0ZM127.82,73H129V79.6h-1.16Z" transform="translate(-7.45 -13.73)"/><path class="cls-2" d="M136.69,73.67a2.57,2.57,0,0,1,.66,1.87V79.6h-1.16V75.85a1.77,1.77,0,0,0-.46-1.3,1.74,1.74,0,0,0-1.29-.46,2,2,0,0,0-1.43.56,2.23,2.23,0,0,0-.63,1.44V79.6h-1.15V73h1.15v1.39a2.53,2.53,0,0,1,2.5-1.42A2.41,2.41,0,0,1,136.69,73.67Z" transform="translate(-7.45 -13.73)"/><path class="cls-2" d="M142.1,74.09a3.23,3.23,0,0,0-.94-.15,1.58,1.58,0,0,0-.84.19.66.66,0,0,0-.32.59.64.64,0,0,0,.36.6,4.73,4.73,0,0,0,1.07.42,7,7,0,0,1,1.12.4,2,2,0,0,1,.74.58,1.63,1.63,0,0,1,.3,1,1.59,1.59,0,0,1-.7,1.41,3,3,0,0,1-1.74.49,4.34,4.34,0,0,1-1.43-.24,3.4,3.4,0,0,1-1.16-.67l.44-.84a3,3,0,0,0,1,.59,3.33,3.33,0,0,0,1.17.23,1.77,1.77,0,0,0,.92-.21.79.79,0,0,0,0-1.32,4.8,4.8,0,0,0-1.11-.45,6.77,6.77,0,0,1-1.07-.38,1.83,1.83,0,0,1-.71-.56,1.76,1.76,0,0,1,.38-2.35,3,3,0,0,1,1.68-.46,4.3,4.3,0,0,1,1.17.17,3.53,3.53,0,0,1,1,.45l-.42.89A4,4,0,0,0,142.1,74.09Z" transform="translate(-7.45 -13.73)"/></svg>